<?xml version="1.0" encoding="utf-8"?>
<svg width="152px" height="144px" viewbox="0 0 152 144" version="1.1" xmlns:xlink="http://www.w3.org/1999/xlink" xmlns="http://www.w3.org/2000/svg">
  <defs>
    <filter filterUnits="userSpaceOnUse" color-interpolation-filters="sRGB" id="filter_1">
      <feFlood flood-opacity="0" result="BackgroundImageFix" />
      <feColorMatrix in="SourceAlpha" type="matrix" values="0 0 0 0 0 0 0 0 0 0 0 0 0 0 0 0 0 0 127 0" />
      <feOffset dx="0" dy="2" />
      <feGaussianBlur stdDeviation="2" />
      <feColorMatrix type="matrix" values="0 0 0 0 0.39215687 0 0 0 0 0.39215687 0 0 0 0 0.39215687 0 0 0 0.49803922 0" />
      <feBlend mode="normal" in2="BackgroundImageFix" result="effect0_dropShadow" />
      <feBlend mode="normal" in="SourceGraphic" in2="effect0_dropShadow" result="shape" />
    </filter>
  </defs>
  <path d="M113.115 68.8963L111.135 67.7164C108.364 66.012 107.44 62.2099 108.892 59.4567L114.17 49.3615C115.622 46.4771 114.302 44.2483 111.003 44.3795L102.689 44.6417C99.5222 44.7728 95.8271 42.4129 94.6394 39.3974L93.7156 36.9064C92.5279 33.891 89.4927 33.1043 86.9853 35.202L77.8796 42.544C75.3722 44.5106 73.9206 43.7239 74.7124 40.5774L80.5189 16.4538C81.3107 13.3073 79.3312 11.3407 76.164 11.9962L71.9411 12.6517C68.7739 13.3073 64.9468 11.4718 63.6272 8.58746L60.328 2.16325C58.8763 -0.721084 56.5009 -0.721084 55.0493 2.16325L51.7501 8.58746C50.2985 11.4718 46.4714 13.3073 43.3042 12.6517L39.0813 11.734C35.9141 11.0785 33.9346 13.1762 34.7264 16.1916L40.401 40.4463C41.1928 43.5928 39.7411 44.5106 37.2338 42.4129L28.128 35.0709C25.6207 33.1043 22.5854 33.891 21.3977 36.7753L20.474 39.2663C19.2863 42.2818 15.7232 44.6417 12.424 44.5106L4.11006 44.2483C0.942853 44.2483 -0.508783 46.4771 0.942853 49.3615L6.22153 59.4567C7.67317 62.341 6.7494 66.012 3.97809 67.7164L1.99859 68.8963C-0.772717 70.6007 -0.64075 73.0917 2.26252 74.5339L21.2658 83.7113C24.169 85.1535 25.8846 88.0378 25.2248 90.1355C24.433 92.2332 26.5444 93.6754 29.7116 93.2821L51.7501 90.791C52.5419 90.6599 53.4657 90.6599 54.5214 90.5288C54.5214 94.0687 54.5214 97.6086 54.5214 101.148C54.5214 104.951 60.4599 104.951 60.4599 101.148C60.4599 97.6086 60.4599 94.0687 60.4599 90.5288C61.5157 90.5288 62.5714 90.6599 63.4952 90.791L85.2697 93.2821C88.4369 93.6754 90.5484 92.2332 89.7566 90.1355C88.9648 88.0378 90.8123 85.1535 93.7156 83.7113L112.719 74.5339C115.622 73.2228 115.754 70.6007 113.115 68.8963Z" transform="matrix(0.9702957 0.2419219 -0.2419219 0.9702957 32.3721 5.212219)" id="Path" fill="#E34848" stroke="#ECF0F3" stroke-width="2" filter="url(#filter_1)" />
</svg>